HIERARCHY
ROOT Hips
{
	OFFSET -3.958830 18.904000 13.208200
	CHANNELS 6 Xposition Yposition Zposition Zrotation Yrotation Xrotation 
	JOINT LHipJoint
	{
		OFFSET 0.000000 0.000000 0.000000
		CHANNELS 3 Zrotation Yrotation Xrotation
		JOINT LeftUpLeg
		{
			OFFSET 1.800000 -1.400000 0.085000
			CHANNELS 3 Zrotation Yrotation Xrotation
			JOINT LeftLeg
			{
				OFFSET 2.215000 -6.000000 0.000000
				CHANNELS 3 Zrotation Yrotation Xrotation
				JOINT LeftFoot
				{
					OFFSET 2.500000 -6.900000 0.000000
					CHANNELS 3 Zrotation Yrotation Xrotation
					JOINT LeftToeBase
					{
						OFFSET 0.200000 -0.500000 1.950000
						CHANNELS 3 Zrotation Yrotation Xrotation
						End Site
						{
							OFFSET 0.000000 0.000000 0.000000
						}
					}
				}
			}
		}
	}
	JOINT RHipJoint
	{
		OFFSET 0.000000 0.000000 0.000000
		CHANNELS 3 Zrotation Yrotation Xrotation
		JOINT RightUpLeg
		{
			OFFSET -1.800000 -1.400000 0.085000
			CHANNELS 3 Zrotation Yrotation Xrotation
			JOINT RightLeg
			{
				OFFSET -2.215000 -6.000000 0.000000
				CHANNELS 3 Zrotation Yrotation Xrotation
				JOINT RightFoot
				{
					OFFSET -2.500000 -6.900000 0.000000
					CHANNELS 3 Zrotation Yrotation Xrotation
					JOINT RightToeBase
					{
						OFFSET -0.200000 -0.500000 1.950000
						CHANNELS 3 Zrotation Yrotation Xrotation
						End Site
						{
							OFFSET 0.000000 0.000000 0.000000
						}
					}
				}
			}
		}
	}
	JOINT LowerBack
	{
		OFFSET 0.000000 0.000000 0.000000
		CHANNELS 3 Zrotation Yrotation Xrotation
		JOINT Spine
		{
			OFFSET -0.087000 1.940000 -0.288900
			CHANNELS 3 Zrotation Yrotation Xrotation
			JOINT Spine1
			{
				OFFSET 0.000000 1.950000 0.060000
				CHANNELS 3 Zrotation Yrotation Xrotation
				JOINT Neck
				{
					OFFSET 0.000000 0.000000 0.000000
					CHANNELS 3 Zrotation Yrotation Xrotation
					JOINT Neck1
					{
						OFFSET 0.000000 1.600000 0.340000
						CHANNELS 3 Zrotation Yrotation Xrotation
						JOINT Head
						{
							OFFSET 0.000000 1.667000 -0.240000
							CHANNELS 3 Zrotation Yrotation Xrotation
							End Site
							{
								OFFSET 0.000000 0.000000 0.000000
							}
						}
					}
				}
				JOINT LeftShoulder
				{
					OFFSET 0.000000 0.000000 0.000000
					CHANNELS 3 Zrotation Yrotation Xrotation
					JOINT LeftArm
					{
						OFFSET 2.700000 1.550000 -0.730000
						CHANNELS 3 Zrotation Yrotation Xrotation
						JOINT LeftForeArm
						{
							OFFSET 5.450000 0.000000 0.000000
							CHANNELS 3 Zrotation Yrotation Xrotation
							JOINT LeftHand
							{
								OFFSET 3.450000 0.000000 0.000000
								CHANNELS 3 Zrotation Yrotation Xrotation
								JOINT LeftHandIndex1
								{
									OFFSET 0.750000 0.000000 0.000000
									CHANNELS 3 Zrotation Yrotation Xrotation
									End Site
									{
										OFFSET 0.000000 0.000000 0.000000
									}
								}
							}
						}
					}
				}
				JOINT RightShoulder
				{
					OFFSET 0.000000 0.000000 0.000000
					CHANNELS 3 Zrotation Yrotation Xrotation
					JOINT RightArm
					{
						OFFSET -2.700000 1.550000 -0.730000
						CHANNELS 3 Zrotation Yrotation Xrotation
						JOINT RightForeArm
						{
							OFFSET -5.450000 0.000000 0.000000
							CHANNELS 3 Zrotation Yrotation Xrotation
							JOINT RightHand
							{
								OFFSET -3.450000 0.000000 0.000000
								CHANNELS 3 Zrotation Yrotation Xrotation
								JOINT RightHandIndex1
								{
									OFFSET -0.750000 0.000000 0.000000
									CHANNELS 3 Zrotation Yrotation Xrotation
									End Site
									{
										OFFSET 0.000000 0.000000 0.000000
									}
								}
							}
						}
					}
				}
			}
		}
	}
}
MOTION
Frames: 9
Frame Time: 0.016667
-3.091480 16.307700 -1.968840 -0.480262 17.797916 2.030366 -14.978000 12.711924 2.286989 13.718818 -0.536554 -16.362511 -1.621334 4.190951 9.135596 -0.358674 3.323018 3.403958 0.191780 0.170170 0.043900 18.381942 -11.241021 3.125584 -14.868026 1.075905 -3.413131 6.294789 -3.746120 0.272091 -0.253016 -4.434774 2.883945 0.252790 0.247600 0.077470 -4.377644 0.244909 -7.287430 13.601721 0.150269 3.538219 -15.584580 3.214111 12.849328 11.645272 -4.703625 -12.283657 -7.932093 -0.522020 29.328936 -3.969760 -3.408960 -4.888090 -18.843639 -16.226299 7.601897 -51.587953 -6.936762 0.857954 -1.296418 -10.005047 -0.592398 -3.894856 3.075971 -0.043190 0.193270 -0.157390 0.112520 -3.893781 24.202070 4.432328 -9.332419 25.748859 -0.180729 -8.201999 15.095395 -0.524942 2.430625 -1.442438 -0.107020 0.181450 0.020070 0.011450 
-3.104890 16.314230 -1.966210 -0.412698 17.909716 1.890288 -14.960044 12.746899 2.297752 13.605853 -0.539141 -16.182728 -1.427404 4.133290 9.100107 -0.364070 3.299057 3.407569 0.197890 0.175110 0.061620 18.386718 -11.306569 3.098468 -14.704285 1.027548 -3.454142 6.165629 -3.829295 0.941966 -0.250578 -4.406868 2.886145 0.252750 0.229200 0.083480 -4.427804 0.280875 -7.303983 14.233585 -0.080558 3.716996 -16.172841 3.045685 12.863055 12.009265 -4.386603 -12.396233 -7.352878 -0.509360 29.553056 -4.401410 -3.001290 -5.009560 -19.919737 -16.840315 7.867165 -50.801883 -6.385197 1.046313 -1.476726 -8.071989 -0.491402 -3.899981 3.072620 -0.035690 0.189640 -0.145020 0.104630 -3.633419 24.651189 4.303038 -9.799400 26.044012 -0.279239 -8.064597 14.034922 -0.545648 2.456748 -1.430315 -0.102270 0.170190 0.015480 0.001400 
-3.111300 16.321160 -1.964680 -0.221714 17.886384 1.768275 -14.936021 12.783092 2.316188 13.276316 -0.579619 -15.726485 -1.271802 4.031450 8.770241 -0.364404 3.253104 3.423435 0.214590 0.193790 0.077500 18.395029 -11.371823 3.058455 -14.808700 1.005700 -3.734129 6.017573 -3.912759 1.749965 -0.249381 -4.352565 2.896646 0.257080 0.208810 0.081340 -4.490897 0.305149 -7.311466 14.886657 -0.388883 3.927916 -17.087470 2.899298 12.787710 12.295462 -4.288002 -12.415888 -7.188417 -0.283195 29.899293 -4.093620 -2.838280 -5.559910 -20.549387 -17.034123 7.978532 -50.277066 -5.895006 1.164121 -1.676752 -6.491376 -0.415830 -3.886076 3.063270 -0.017750 0.170200 -0.125040 0.104770 -3.686271 24.766461 4.144648 -9.976095 26.178414 -0.260618 -7.350262 14.583559 -0.376345 2.445981 -1.423157 -0.095930 0.169770 0.005140 -0.002460 
-3.116250 16.323640 -1.966930 0.150302 17.994533 1.765142 -14.922264 12.791587 2.330793 12.713547 -0.664194 -15.389019 -1.142569 3.908765 8.357346 -0.365341 3.193288 3.448230 0.217820 0.200000 0.078650 18.399523 -11.409202 3.030208 -15.199660 1.029760 -4.027279 6.120919 -4.009943 2.342798 -0.242836 -4.337788 2.895159 0.256630 0.200800 0.079220 -4.530931 0.330272 -7.306554 15.160587 -0.643419 3.943603 -17.749719 2.764575 12.816891 12.460078 -4.211213 -12.374844 -7.072759 -0.132256 30.280066 -3.911750 -2.797340 -5.679660 -20.497983 -17.022084 8.000032 -50.393804 -5.676849 1.295963 -2.026643 -5.276783 -0.358013 -3.885998 3.055388 -0.012360 0.162100 -0.117850 0.103810 -4.124115 24.640110 4.001069 -9.418614 26.562563 -0.026649 -7.191527 14.962867 -0.323334 2.437731 -1.424506 -0.091950 0.168500 0.003110 -0.002170 
-3.126510 16.324230 -1.968680 0.393157 18.304246 1.712738 -14.927604 12.792456 2.359837 12.490165 -0.703806 -15.214932 -1.322258 3.881791 7.979893 -0.362215 3.183208 3.453030 0.219360 0.200000 0.079880 18.391156 -11.429728 2.991508 -15.275077 1.004212 -4.174586 6.036175 -4.071331 2.852355 -0.235426 -4.319243 2.897645 0.254920 0.197030 0.081060 -4.522514 0.333182 -7.298491 15.022239 -0.816839 3.892074 -17.656638 2.553389 12.913556 12.457180 -4.136032 -12.294738 -6.963065 -0.024446 30.645010 -3.866490 -2.782550 -5.597580 -20.147715 -16.915035 7.996839 -51.197214 -5.542641 1.275053 -2.449232 -4.862194 -0.346993 -3.887371 3.055526 -0.010840 0.159510 -0.115710 0.103060 -4.447837 24.413880 3.927913 -8.567404 26.991418 0.101954 -7.831933 15.352113 -0.434804 2.432606 -1.435563 -0.088990 0.164320 0.002850 -0.002690 
-3.134970 16.321350 -1.970910 0.310319 18.372422 1.688890 -14.927210 12.759232 2.372756 12.671102 -0.683255 -15.047551 -1.519197 3.876479 7.514072 -0.357027 3.207792 3.448780 0.213440 0.191220 0.074780 18.397635 -11.426378 2.981377 -15.092364 1.005382 -4.281465 6.007017 -4.055377 2.862294 -0.228149 -4.311009 2.901932 0.252030 0.205100 0.085670 -4.530110 0.381201 -7.290102 15.186998 -0.801376 3.702524 -17.076891 2.390460 12.994763 12.379650 -4.214124 -12.179188 -7.060158 0.050763 30.733898 -4.063440 -2.752590 -5.294030 -19.587561 -16.662193 7.975403 -52.637243 -5.420148 1.077508 -3.012980 -5.347635 -0.379075 -3.895041 3.059024 -0.017120 0.168360 -0.122680 0.103210 -4.791691 24.164817 3.827597 -8.154324 27.413874 0.152135 -8.423544 15.221105 -0.568616 2.435825 -1.446215 -0.090300 0.161820 0.007260 -0.001700 
-3.146240 16.319700 -1.973310 0.173684 18.395280 1.555150 -14.929640 12.750802 2.386265 13.064914 -0.614179 -15.053413 -1.806527 3.956172 7.445058 -0.347006 3.249301 3.428333 0.216890 0.194020 0.078450 18.394843 -11.417154 2.977251 -14.991415 1.009247 -4.351126 6.273178 -4.102533 3.015738 -0.229765 -4.307590 2.899683 0.251120 0.199450 0.088460 -4.522025 0.381251 -7.303172 15.256316 -0.837904 3.735774 -16.510838 2.217984 13.080885 12.314948 -4.301792 -12.180749 -7.215765 0.173778 31.017342 -4.105180 -2.709740 -5.310950 -19.270943 -16.719137 8.049395 -53.765732 -5.309330 0.988985 -3.384929 -5.286726 -0.386268 -3.891812 3.061713 -0.014700 0.164470 -0.117630 0.102560 -4.922822 24.294805 3.752055 -8.003055 27.852801 0.100070 -9.006701 14.371010 -0.718148 2.461220 -1.441134 -0.085980 0.157890 0.005520 -0.001900 
-3.147910 16.313990 -1.972790 0.101601 18.488176 1.594237 -14.928946 12.724346 2.401219 13.261211 -0.597933 -15.139972 -2.039550 3.989335 7.268087 -0.338008 3.268636 3.421296 0.210100 0.189400 0.068040 18.396500 -11.412722 2.971423 -15.026143 1.048538 -4.543206 6.589596 -4.156380 3.208599 -0.220867 -4.313326 2.896474 0.248650 0.207270 0.089130 -4.525552 0.413839 -7.307906 15.404355 -0.818785 3.671945 -16.238820 2.151712 13.102251 12.317631 -4.292846 -12.186013 -7.142812 0.122221 30.840955 -3.999220 -2.794570 -5.116860 -18.910604 -16.664634 8.042035 -54.705506 -5.239988 0.889900 -3.681642 -5.236631 -0.392196 -3.899404 3.067609 -0.024510 0.169970 -0.124880 0.103120 -5.263904 24.246835 3.750773 -8.065261 27.899086 0.146727 -8.961812 13.974115 -0.728663 2.470254 -1.444249 -0.084600 0.155880 0.009420 0.003290 
-3.143560 16.310660 -1.971540 0.221118 18.574883 1.723540 -14.932039 12.712542 2.422522 13.200880 -0.628314 -15.264162 -2.243766 4.001071 7.150540 -0.331842 3.267568 3.420978 0.206180 0.185480 0.061900 18.391291 -11.419888 2.954468 -15.130141 1.086766 -4.752268 6.623105 -4.187009 3.476653 -0.211047 -4.304448 2.897653 0.244480 0.209900 0.093650 -4.515149 0.428933 -7.309757 15.399911 -0.835163 3.657257 -16.232435 2.138000 13.109588 12.380331 -4.302223 -12.248172 -7.100430 -0.050070 30.516570 -4.014380 -2.911460 -5.054880 -18.504127 -16.483193 7.995208 -55.338920 -5.035814 0.578354 -4.046952 -5.750446 -0.424871 -3.898764 3.077797 -0.031270 0.173490 -0.128220 0.102990 -5.782025 24.128153 3.829665 -8.219816 27.694996 0.266366 -8.566398 13.607574 -0.659720 2.473929 -1.446587 -0.079950 0.149650 0.011740 0.006660 
